<?xml version="1.0" encoding="utf-8"?>
<!-- Generator: Adobe Illustrator 22.0.1, SVG Export Plug-In . SVG Version: 6.00 Build 0)  -->
<svg version="1.1" id="Capa_1" xmlns="http://www.w3.org/2000/svg" xmlns:xlink="http://www.w3.org/1999/xlink" x="0px" y="0px"
	 viewBox="0 0 300 300" style="enable-background:new 0 0 300 300;" xml:space="preserve">
<style type="text/css">
	.st0{fill:#48448F;}
	.st1{display:none;}
	.st2{display:inline;}
</style>
<g>
	<g>
		<path class="st0" d="M181.5,208.7c-49.5,0-89.8-40.3-89.8-89.8C91.7,69.3,132,29,181.5,29s89.8,40.3,89.8,89.8
			C271.4,168.4,231.1,208.7,181.5,208.7z M181.5,51.5c-37.1,0-67.3,30.2-67.3,67.3s30.2,67.3,67.3,67.3s67.3-30.2,67.3-67.3
			S218.7,51.5,181.5,51.5z"/>
	</g>
	<g>
		<path class="st0" d="M59,271c-7.8,0-15.5-2.9-21.4-8.8c0,0-0.1-0.1-0.1-0.1c-11.9-11.9-11.9-31.2,0-43l35.8-35.8
			c5.7-5.7,13.4-8.9,21.5-8.9c8.1,0,15.7,3.1,21.5,8.9c0,0,0,0,0.1,0.1c5.7,5.7,8.9,13.4,8.9,21.5c0,8.1-3.2,15.8-8.9,21.5
			l-35.8,35.8C74.6,268,66.8,271,59,271z M53.4,246.1C53.4,246.1,53.4,246.2,53.4,246.1c3.1,3.1,8.1,3.1,11.2,0l35.8-35.8
			c1.5-1.5,2.3-3.5,2.3-5.6c0-2.1-0.8-4.1-2.3-5.5c0,0,0,0,0,0c-1.5-1.5-3.5-2.3-5.6-2.3c-2.1,0-4.1,0.8-5.6,2.3L53.4,235
			C50.4,238.1,50.4,243,53.4,246.1z"/>
	</g>
	<g>
		<path class="st0" d="M108.4,202.5c-2.9,0-5.8-1.1-8-3.3c-4.4-4.4-4.4-11.5,0-15.9l17.2-17.2c4.4-4.4,11.5-4.4,15.9,0
			c4.4,4.4,4.4,11.5,0,15.9l-17.2,17.2C114.1,201.4,111.2,202.5,108.4,202.5z"/>
	</g>
</g>
<path class="st1" d="M271.9,73H75.8L68,37H28.1v20h23.8l32.2,149.7h13c-6.7,5.9-10.9,14.5-10.9,24.1c0,17.8,14.6,32.3,32.6,32.3
	s32.6-14.5,32.6-32.3c0-9.6-4.2-18.2-10.9-24.1h51.7c-6.7,5.9-10.9,14.5-10.9,24.1c0,17.8,14.6,32.3,32.6,32.3s32.6-14.5,32.6-32.3
	c0-9.6-4.2-18.2-10.9-24.1h12v-20H100.2l-1.5-7h151.7L271.9,73z M118.8,243c-6.9,0-12.6-5.5-12.6-12.3s5.6-12.3,12.6-12.3
	s12.6,5.5,12.6,12.3S125.7,243,118.8,243z M213.8,243c-6.9,0-12.6-5.5-12.6-12.3s5.6-12.3,12.6-12.3s12.6,5.5,12.6,12.3
	S220.8,243,213.8,243z M247.4,93l-2.6,12.9H82.9L80.1,93H247.4z M176.3,126h30.4l-6.2,33.7h-24.3V126H176.3z M156.3,159.6H132
	l-6.2-33.7h30.4v33.7H156.3z M87.2,126h18.3l6.2,33.7H94.4L87.2,126z M220.9,159.6l6.2-33.7h13.7l-6.8,33.7H220.9z"/>
<g class="st1">
	<path class="st2" d="M183.6,37c-44,0-79.8,35.8-79.8,79.8c0,18.2,6.2,35,16.5,48.5l-7,7l-12-12l-64.6,64.6L74.8,263l64.6-64.6
		l-12-12l6.9-6.9c13.6,10.7,30.7,17.1,49.2,17.1c44,0,79.8-35.8,79.8-79.8S227.6,37,183.6,37z M74.8,234.7l-9.9-9.9l36.3-36.3
		l9.9,9.9L74.8,234.7z M183.6,176.5c-33,0-59.8-26.8-59.8-59.8s26.8-59.8,59.8-59.8s59.8,26.8,59.8,59.8
		C243.4,149.7,216.6,176.5,183.6,176.5z"/>
</g>
<polygon class="st1" points="228.6,129.6 150,51 71.4,129.6 85.5,143.7 140,89.2 140,249 160,249 160,89.2 214.5,143.7 "/>
<polygon class="st1" points="71.4,170.4 150,249 228.6,170.4 214.5,156.3 160,210.8 160,51 140,51 140,210.8 85.5,156.3 "/>
</svg>
