<?xml version="1.0" encoding="utf-8"?>
<!-- Generator: Adobe Illustrator 22.0.1, SVG Export Plug-In . SVG Version: 6.00 Build 0)  -->
<svg version="1.1" id="Capa_1" xmlns="http://www.w3.org/2000/svg" xmlns:xlink="http://www.w3.org/1999/xlink" x="0px" y="0px"
	 viewBox="0 0 300 300" style="enable-background:new 0 0 300 300;" xml:space="preserve">
<style type="text/css">
	.st0{fill:#FFFFFF;}
	.st1{display:none;}
	.st2{display:inline;}
</style>
<g>
	<path class="st0" d="M75.7,72.2h148.6c5.5,0,10,4.5,10,10v0c0,5.5-4.5,10-10,10H75.7c-5.5,0-10-4.5-10-10v0
		C65.7,76.7,70.2,72.2,75.7,72.2z"/>
	<path class="st0" d="M75.7,207.8h148.6c5.5,0,10,4.5,10,10v0c0,5.5-4.5,10-10,10H75.7c-5.5,0-10-4.5-10-10v0
		C65.7,212.3,70.2,207.8,75.7,207.8z"/>
	<path class="st0" d="M75.7,140h148.6c5.5,0,10,4.5,10,10v0c0,5.5-4.5,10-10,10H75.7c-5.5,0-10-4.5-10-10v0
		C65.7,144.5,70.2,140,75.7,140z"/>
</g>
<path class="st1" d="M271.9,73H75.8L68,37H28.1v20h23.8l32.2,149.7h13c-6.7,5.9-10.9,14.5-10.9,24.1c0,17.8,14.6,32.3,32.6,32.3
	s32.6-14.5,32.6-32.3c0-9.6-4.2-18.2-10.9-24.1h51.7c-6.7,5.9-10.9,14.5-10.9,24.1c0,17.8,14.6,32.3,32.6,32.3s32.6-14.5,32.6-32.3
	c0-9.6-4.2-18.2-10.9-24.1h12v-20H100.2l-1.5-7h151.7L271.9,73z M118.8,243c-6.9,0-12.6-5.5-12.6-12.3s5.6-12.3,12.6-12.3
	s12.6,5.5,12.6,12.3S125.7,243,118.8,243z M213.8,243c-6.9,0-12.6-5.5-12.6-12.3s5.6-12.3,12.6-12.3s12.6,5.5,12.6,12.3
	S220.8,243,213.8,243z M247.4,93l-2.6,12.9H82.9L80.1,93H247.4z M176.3,126h30.4l-6.2,33.7h-24.3V126H176.3z M156.3,159.6H132
	l-6.2-33.7h30.4v33.7H156.3z M87.2,126h18.3l6.2,33.7H94.4L87.2,126z M220.9,159.6l6.2-33.7h13.7l-6.8,33.7H220.9z"/>
<g class="st1">
	<path class="st2" d="M183.6,37c-44,0-79.8,35.8-79.8,79.8c0,18.2,6.2,35,16.5,48.5l-7,7l-12-12l-64.6,64.6L74.8,263l64.6-64.6
		l-12-12l6.9-6.9c13.6,10.7,30.7,17.1,49.2,17.1c44,0,79.8-35.8,79.8-79.8S227.6,37,183.6,37z M74.8,234.7l-9.9-9.9l36.3-36.3
		l9.9,9.9L74.8,234.7z M183.6,176.5c-33,0-59.8-26.8-59.8-59.8s26.8-59.8,59.8-59.8s59.8,26.8,59.8,59.8
		C243.4,149.7,216.6,176.5,183.6,176.5z"/>
</g>
<polygon class="st1" points="228.6,129.6 150,51 71.4,129.6 85.5,143.7 140,89.2 140,249 160,249 160,89.2 214.5,143.7 "/>
<polygon class="st1" points="71.4,170.4 150,249 228.6,170.4 214.5,156.3 160,210.8 160,51 140,51 140,210.8 85.5,156.3 "/>
</svg>
