<?xml version="1.0" encoding="utf-8"?>
<!-- Generator: Adobe Illustrator 22.0.1, SVG Export Plug-In . SVG Version: 6.00 Build 0)  -->
<svg version="1.1" id="Capa_1" xmlns="http://www.w3.org/2000/svg" xmlns:xlink="http://www.w3.org/1999/xlink" x="0px" y="0px"
	 viewBox="0 0 250 111.6" style="enable-background:new 0 0 250 111.6;" xml:space="preserve">
<style type="text/css">
	.st0{fill:#494490;}
	.st1{fill:#70B62E;}
	.st2{fill:#76B72E;}
	.st3{fill:#FFFFFF;}
</style>
<g>
	<g>
		<g>
			<g>
				<path class="st0" d="M44.6,88.6c-2.7,0-5.2-1-7.1-3L20.1,68.2c-1.4-1.4-2.2-3.4-2.2-5.4V25.7c0-1.1,0.7-2.1,1.7-2.5
					c1-0.4,2.2-0.2,3,0.6l22.2,22.2l22.2-22.2c0.8-0.8,1.9-1,3-0.6c1,0.4,1.7,1.4,1.7,2.5v37.1c0,2-0.8,4-2.2,5.4L51.8,85.7
					C49.9,87.6,47.3,88.6,44.6,88.6z M24.4,64.9l17,17c1.8,1.8,4.8,1.8,6.6,0l17-17c0.7-0.7,1.1-1.7,1.1-2.7V32.2L46.6,51.7
					c-1.1,1.1-2.8,1.1-3.8,0L23.3,32.2v29.9C23.3,63.2,23.7,64.1,24.4,64.9z"/>
				<g>
					<path class="st1" d="M44.6,67.8c-9.9,0-18-8.1-18-18s8.1-18,18-18c9.9,0,18,8.1,18,18S54.6,67.8,44.6,67.8z M44.6,37.2
						c-6.9,0-12.6,5.6-12.6,12.6s5.6,12.6,12.6,12.6s12.6-5.6,12.6-12.6S51.6,37.2,44.6,37.2z"/>
				</g>
			</g>
			<g>
				<path class="st0" d="M44.6,45.9l22.2-22.2c0.8-0.8,1.9-1,3-0.6c1,0.4,1.7,1.4,1.7,2.5L66,32.2L46.6,51.7c-1.1,1.1-2.8,1.1-3.8,0
					L44.6,45.9z"/>
			</g>
			<g>
				<path class="st0" d="M187.6,37.7c0,4-3.5,5.7-7.2,5.7c-3.5,0-6.1-1.3-7.5-4.1l4.5-2.6c0.5,1.3,1.4,2,2.9,2
					c1.2,0,1.9-0.4,1.9-1.1c0-1.9-8.5-0.9-8.5-6.9c0-3.8,3.2-5.7,6.8-5.7c2.8,0,5.3,1.2,6.8,3.7l-4.4,2.4c-0.5-0.9-1.2-1.5-2.3-1.5
					c-0.9,0-1.5,0.3-1.5,1C179.1,32.6,187.6,31.3,187.6,37.7z"/>
				<path class="st0" d="M201.6,81.3v6.1c0,1.5,1.3,1.6,3.6,1.5v4.7c-6.8,0.7-8.8-1.4-8.8-6.2v-6.1h-2.8v-5h2.8V73h5.2v3.3h3.6v5
					H201.6z"/>
				<path class="st0" d="M112.2,25.1c-2.5,0-4.3,0.9-5.3,2.3c-1-1.4-2.8-2.3-5.3-2.3c-5.4,0-7.7,2.8-7.7,7.2v10.7h5.2h0v-9.8
					c0-2,0.9-3.2,2.6-3.3c1.7,0.1,2.6,1.2,2.6,3.3v9.8h5.2v-9.8c0-2,0.9-3.2,2.6-3.3c1.7,0.1,2.6,1.2,2.6,3.3v9.8h0h5.2V32.3
					C119.9,28,117.6,25.1,112.2,25.1z"/>
				<path class="st0" d="M112.2,75.9c-2.5,0-4.3,0.9-5.3,2.3c-1-1.4-2.8-2.3-5.3-2.3c-5.4,0-7.7,2.8-7.7,7.2v10.7h5.2h0v-9.8
					c0-2,0.9-3.2,2.6-3.3c1.7,0.1,2.6,1.2,2.6,3.3v9.8h5.2v-9.8c0-2,0.9-3.2,2.6-3.3c1.7,0.1,2.6,1.2,2.6,3.3v9.8h0h5.2V83
					C119.9,78.7,117.6,75.9,112.2,75.9z"/>
				<path class="st0" d="M123,21c0-1.7,1.4-3.1,3.1-3.1c1.7,0,3.1,1.4,3.1,3.1c0,1.7-1.4,3.1-3.1,3.1C124.4,24.1,123,22.7,123,21z
					 M123.5,25.6h5.2v17.3h-5.2V25.6z"/>
				<path class="st0" d="M140.8,25.1c-5.3,0-8.3,2.5-8.3,7.2v10.7h5.2v-9.5c0-2.4,1.3-3.5,3.1-3.6c1.8,0,3.1,1.1,3.1,3.6v9.5h5.2
					V32.3C149.1,27.6,146.1,25.1,140.8,25.1z"/>
				<path class="st0" d="M170.5,18.7v24.3h-5.2v-1.6c-1.1,1.3-2.8,2.1-5.2,2.1c-4.5,0-8.3-4-8.3-9.2c0-5.2,3.7-9.2,8.3-9.2
					c2.3,0,3.7,0.3,5.2,1.5v-8H170.5z M165.3,34.3c0-2.6-1.7-4.2-4.1-4.2c-2.4,0-4.1,1.6-4.1,4.2c0,2.6,1.7,4.2,4.1,4.2
					C163.6,38.5,165.3,36.9,165.3,34.3z"/>
				<path class="st1" d="M93,59.6c0-5.2,4.1-9.2,9.2-9.2c5.1,0,9.2,4,9.2,9.2s-4.1,9.2-9.2,9.2C97.1,68.8,93,64.8,93,59.6z
					 M106.2,59.6c0-2.5-1.7-4.1-4-4.1c-2.3,0-4,1.6-4,4.1c0,2.5,1.7,4.1,4,4.1C104.5,63.7,106.2,62.1,106.2,59.6z"/>
				<path class="st0" d="M130.5,51l-6.4,17.3h-5.9L111.8,51h5.8l3.6,11l3.6-11H130.5z"/>
				<path class="st0" d="M140.5,64.2c1.4,0,2.6-0.6,3.3-1.3l4.2,2.4c-1.7,2.4-4.3,3.6-7.6,3.6c-5.9,0-9.6-4-9.6-9.2s3.7-9.2,9.2-9.2
					c5.1,0,8.8,3.9,8.8,9.2c0,0.7-0.1,1.4-0.2,2.1h-12.3C137,63.5,138.6,64.2,140.5,64.2z M143.7,57.8c-0.6-2-2.1-2.7-3.7-2.7
					c-2,0-3.3,1-3.8,2.7H143.7z"/>
				<path class="st0" d="M162.2,50.6v5.9c-2.2-0.3-5.2,0.5-5.2,4v7.8h-5.2V51h5.2v1.3C159,50.3,160,50.6,162.2,50.6z"/>
				<path class="st0" d="M141.3,76.3v17.3h-5.2v-1.6c-1.1,1.3-2.8,2.1-5.2,2.1c-4.5,0-8.3-4-8.3-9.2c0-5.2,3.7-9.2,8.3-9.2
					c2.3,0,4,0.8,5.2,2.1v-1.6H141.3z M136.1,85c0-2.6-1.7-4.2-4.1-4.2s-4.1,1.6-4.1,4.2c0,2.6,1.7,4.2,4.1,4.2S136.1,87.6,136.1,85
					z"/>
				<path class="st0" d="M168.7,93.7l-5.6-7.7v7.7h-5.2V69.4h5.2v14.5l5.2-7.6h6.1l-6.3,8.7l6.5,8.7H168.7z"/>
				<path class="st0" d="M184.3,89.5c1.4,0,2.6-0.6,3.3-1.3l4.2,2.4c-1.7,2.4-4.3,3.6-7.6,3.6c-5.9,0-9.6-4-9.6-9.2
					c0-5.2,3.7-9.2,9.2-9.2c5.1,0,8.8,3.9,8.8,9.2c0,0.7-0.1,1.4-0.2,2.1h-12.3C180.8,88.9,182.3,89.5,184.3,89.5z M187.4,83.2
					c-0.6-2-2.1-2.7-3.7-2.7c-2,0-3.3,1-3.8,2.7H187.4z"/>
				<path class="st0" d="M155.5,76v5.9c-2.2-0.3-5.2,0.5-5.2,4v7.8h-5.2V76.3h5.2v3.1C151,77.1,153.3,76,155.5,76z"/>
			</g>
		</g>
		<g>
			<path class="st2" d="M171.3,53.2c0-1.7,1.4-3.1,3.1-3.1c0.9,0,1.7,0.4,2.2,1.1v-0.5c0-0.3,0.1-0.4,0.4-0.4h0
				c0.3,0,0.4,0.1,0.4,0.4v5.1c0,0.3-0.1,0.4-0.4,0.4h0c-0.3,0-0.4-0.1-0.4-0.4v-0.5c-0.5,0.7-1.3,1.1-2.2,1.1
				C172.7,56.3,171.3,54.9,171.3,53.2z M176.6,53.2c0-1.2-1-2.2-2.2-2.2c-1.2,0-2.1,1-2.1,2.2c0,1.2,0.9,2.2,2.1,2.2
				C175.5,55.4,176.6,54.4,176.6,53.2z"/>
			<path class="st2" d="M184.8,52.1c-0.2,0-0.4-0.1-0.5-0.3c-0.4-0.5-1-0.9-1.7-0.9c-1.2,0-2.1,1-2.1,2.2c0,1.2,0.9,2.2,2.1,2.2
				c0.7,0,1.3-0.4,1.7-0.9c0.1-0.2,0.3-0.3,0.5-0.3h0.1c0.3,0,0.5,0.2,0.3,0.5c-0.5,0.9-1.5,1.5-2.7,1.5c-1.7,0-3.1-1.4-3.1-3.1
				c0-1.7,1.4-3.1,3.1-3.1c1.1,0,2.1,0.6,2.7,1.5c0.2,0.3,0,0.5-0.3,0.5H184.8z"/>
			<path class="st2" d="M187,53.2c0-1.7,1.4-3.1,3.1-3.1c0.9,0,1.7,0.4,2.2,1.1v-0.5c0-0.3,0.1-0.4,0.4-0.4h0c0.3,0,0.4,0.1,0.4,0.4
				v5.1c0,0.3-0.1,0.4-0.4,0.4h0c-0.3,0-0.4-0.1-0.4-0.4v-0.5c-0.5,0.7-1.3,1.1-2.2,1.1C188.4,56.3,187,54.9,187,53.2z M192.3,53.2
				c0-1.2-1-2.2-2.2-2.2c-1.2,0-2.1,1-2.1,2.2c0,1.2,0.9,2.2,2.1,2.2C191.2,55.4,192.3,54.4,192.3,53.2z"/>
			<path class="st2" d="M201,56.2c-0.3,0-0.4-0.1-0.4-0.4v-0.5c-0.5,0.7-1.3,1.1-2.2,1.1c-1.7,0-3.1-1.4-3.1-3.1
				c0-1.7,1.4-3.1,3.1-3.1c0.9,0,1.7,0.4,2.2,1.1v-4.3c0-0.3,0.1-0.4,0.4-0.4h0c0.3,0,0.4,0.1,0.4,0.4v8.8
				C201.5,56,201.4,56.2,201,56.2L201,56.2z M200.5,53.2c0-1.2-1-2.2-2.2-2.2c-1.2,0-2.1,1-2.1,2.2c0,1.2,0.9,2.2,2.1,2.2
				C199.5,55.4,200.5,54.4,200.5,53.2z"/>
			<path class="st2" d="M209.6,53.4c0,0.1-0.1,0.2-0.4,0.2h-4.8c0.2,1,1,1.8,2.1,1.8c0.6,0,1.1-0.2,1.4-0.6c0.2-0.2,0.3-0.2,0.5-0.2
				h0.2c0.4,0,0.5,0.2,0.3,0.5c-0.6,0.7-1.5,1.2-2.5,1.2c-1.7,0-3.1-1.4-3.1-3.1c0-1.7,1.4-3.1,3.1-3.1c1.7,0,3.1,1.4,3.1,3.1V53.4z
				 M204.4,52.8h4.2c-0.2-1-1-1.7-2.1-1.7C205.4,51,204.6,51.8,204.4,52.8z"/>
			<path class="st2" d="M220.4,52.8v3c0,0.3-0.1,0.4-0.4,0.4h0c-0.3,0-0.4-0.1-0.4-0.4v-3c0-1.2-0.4-1.8-1.3-1.8
				c-1.1,0-1.8,0.6-1.8,2.1v2.7c0,0.3-0.1,0.4-0.4,0.4h0c-0.3,0-0.4-0.1-0.4-0.4v-3c0-1.2-0.4-1.8-1.3-1.8c-1.1,0-1.8,0.6-1.8,2.1
				v2.7c0,0.3-0.1,0.4-0.4,0.4h0c-0.3,0-0.4-0.1-0.4-0.4v-5.1c0-0.3,0.1-0.4,0.4-0.4h0c0.3,0,0.4,0.1,0.4,0.4v0.3
				c0.4-0.5,1-0.8,1.8-0.8c1,0,1.7,0.3,2,1.2c0.4-0.7,1.1-1.2,2-1.2C219.7,50.1,220.4,50.9,220.4,52.8z"/>
			<path class="st2" d="M222.7,48.4c0-0.3,0.3-0.6,0.6-0.6c0.3,0,0.6,0.3,0.6,0.6c0,0.4-0.3,0.6-0.6,0.6
				C223,49,222.7,48.7,222.7,48.4z M223.3,56.2c-0.3,0-0.4-0.1-0.4-0.4v-5.1c0-0.3,0.1-0.4,0.4-0.4h0.1c0.3,0,0.4,0.1,0.4,0.4v5.1
				C223.8,56,223.7,56.2,223.3,56.2L223.3,56.2z"/>
			<path class="st2" d="M225.9,53.2c0-1.7,1.4-3.1,3.1-3.1c0.9,0,1.7,0.4,2.2,1.1v-0.5c0-0.3,0.1-0.4,0.4-0.4h0
				c0.3,0,0.4,0.1,0.4,0.4v5.1c0,0.3-0.1,0.4-0.4,0.4h0c-0.3,0-0.4-0.1-0.4-0.4v-0.5c-0.5,0.7-1.3,1.1-2.2,1.1
				C227.3,56.3,225.9,54.9,225.9,53.2z M231.2,53.2c0-1.2-1-2.2-2.2-2.2c-1.2,0-2.1,1-2.1,2.2c0,1.2,0.9,2.2,2.1,2.2
				C230.2,55.4,231.2,54.4,231.2,53.2z"/>
			<path class="st2" d="M172.2,68c-0.3,0-0.4-0.1-0.4-0.4v-8.8c0-0.3,0.1-0.4,0.4-0.4h0c0.3,0,0.4,0.1,0.4,0.4V63
				c0.5-0.6,1.3-1.1,2.2-1.1c1.7,0,3.1,1.4,3.1,3.1c0,1.7-1.4,3.1-3.1,3.1c-0.9,0-1.7-0.4-2.2-1.1v0.5C172.7,67.8,172.5,68,172.2,68
				L172.2,68z M177,65c0-1.2-0.9-2.2-2.1-2.2c-1.2,0-2.2,1-2.2,2.2c0,1.2,1,2.2,2.2,2.2C176.1,67.2,177,66.2,177,65z"/>
			<path class="st2" d="M184.7,62c0.3,0,0.4,0.1,0.4,0.4v5.1c0,0.3-0.1,0.4-0.4,0.4h0c-0.3,0-0.4-0.1-0.4-0.4v-0.3
				c-0.5,0.5-1.1,0.8-2,0.8c-1.7,0-2.4-0.8-2.4-2.7v-3c0-0.3,0.1-0.4,0.4-0.4h0c0.3,0,0.4,0.1,0.4,0.4v3c0,1.2,0.5,1.8,1.5,1.8
				c1.2,0,2-0.7,2-2v-2.7C184.2,62.2,184.4,62,184.7,62L184.7,62z"/>
			<path class="st2" d="M188.5,62.8c0.4-0.4,0.9-0.8,1.6-0.9c0.3-0.1,0.4,0.1,0.4,0.4v0c0,0.3-0.1,0.4-0.4,0.5
				c-0.9,0.1-1.6,0.8-1.6,1.8v2.9c0,0.3-0.1,0.4-0.4,0.4h0c-0.3,0-0.4-0.1-0.4-0.4v-5.1c0-0.3,0.1-0.4,0.4-0.4h0
				c0.3,0,0.4,0.1,0.4,0.4V62.8z"/>
			<path class="st2" d="M195.2,63.2c-0.2-0.2-0.6-0.4-1.1-0.4c-0.7,0-1.2,0.3-1.2,0.8c0,0.4,0.4,0.7,1.4,0.9
				c1.5,0.3,2.1,0.8,2.1,1.8c0,1-0.8,1.8-2.3,1.8c-1.1,0-2-0.5-2.2-1.3c-0.1-0.3,0.1-0.5,0.4-0.5c0.2,0,0.4,0.1,0.5,0.3
				c0.2,0.4,0.7,0.6,1.3,0.6c0.9,0,1.5-0.4,1.5-0.9c0-0.6-0.4-0.8-1.5-1c-1.4-0.3-2.1-0.8-2.1-1.7c0-0.9,0.7-1.6,2.1-1.6
				c1,0,1.7,0.4,1.9,1.1c0.1,0.3-0.1,0.5-0.4,0.5C195.5,63.5,195.4,63.4,195.2,63.2z"/>
			<path class="st2" d="M198,65c0-1.7,1.4-3.1,3.1-3.1c0.9,0,1.7,0.4,2.2,1.1v-0.5c0-0.3,0.1-0.4,0.4-0.4h0c0.3,0,0.4,0.1,0.4,0.4
				v5.1c0,0.3-0.1,0.4-0.4,0.4h0c-0.3,0-0.4-0.1-0.4-0.4V67c-0.5,0.7-1.3,1.1-2.2,1.1C199.4,68.1,198,66.7,198,65z M203.3,65
				c0-1.2-1-2.2-2.2-2.2c-1.2,0-2.1,1-2.1,2.2c0,1.2,0.9,2.2,2.1,2.2C202.2,67.2,203.3,66.2,203.3,65z M200.6,60.6
				c-0.4,0-0.5-0.2-0.3-0.5l0.8-1.2c0.1-0.2,0.3-0.3,0.5-0.3h0.2c0.4,0,0.5,0.2,0.3,0.5l-0.9,1.2C201,60.5,200.9,60.6,200.6,60.6
				L200.6,60.6z"/>
			<path class="st2" d="M208.8,62.9h-0.9v4.7c0,0.3-0.1,0.4-0.4,0.4h0c-0.3,0-0.4-0.1-0.4-0.4v-4.7h-0.5c-0.3,0-0.4-0.1-0.4-0.4
				c0-0.3,0.1-0.4,0.4-0.4h0.5v-1.9c0-0.3,0.1-0.4,0.4-0.4h0c0.3,0,0.4,0.1,0.4,0.4V62h0.9c0.3,0,0.4,0.1,0.4,0.4
				C209.3,62.7,209.1,62.9,208.8,62.9z"/>
			<path class="st2" d="M210.9,60.2c0-0.3,0.3-0.6,0.6-0.6c0.3,0,0.6,0.3,0.6,0.6c0,0.4-0.3,0.6-0.6,0.6
				C211.2,60.8,210.9,60.5,210.9,60.2z M211.5,68c-0.3,0-0.4-0.1-0.4-0.4v-5.1c0-0.3,0.1-0.4,0.4-0.4h0.1c0.3,0,0.4,0.1,0.4,0.4v5.1
				C212,67.8,211.9,68,211.5,68L211.5,68z"/>
			<path class="st2" d="M214.9,68c-0.3,0-0.4-0.1-0.4-0.4v-8.8c0-0.3,0.1-0.4,0.4-0.4h0c0.3,0,0.4,0.1,0.4,0.4v8.8
				C215.3,67.8,215.2,68,214.9,68L214.9,68z"/>
		</g>
	</g>
</g>
</svg>
