<?xml version="1.0" encoding="utf-8"?>
<!-- Generator: Adobe Illustrator 22.0.1, SVG Export Plug-In . SVG Version: 6.00 Build 0)  -->
<svg version="1.1" id="Capa_1" xmlns="http://www.w3.org/2000/svg" xmlns:xlink="http://www.w3.org/1999/xlink" x="0px" y="0px"
	 viewBox="0 0 250 188.2" style="enable-background:new 0 0 250 188.2;" xml:space="preserve">
<style type="text/css">
	.st0{fill:#494490;}
	.st1{fill:#70B62E;}
	.st2{fill:#76B72E;}
	.st3{fill:#FFFFFF;}
</style>
<g>
	<g>
		<g>
			<path class="st3" d="M190,63.7c0,6.7-5.9,9.6-12.2,9.6c-5.9,0-10.3-2.2-12.6-7l7.6-4.3c0.8,2.2,2.4,3.5,5,3.5
				c2.1,0,3.2-0.6,3.2-1.8c0-3.2-14.4-1.5-14.4-11.7c0-6.4,5.4-9.6,11.5-9.6c4.7,0,9,2.1,11.4,6.3l-7.5,4c-0.8-1.5-2-2.6-3.9-2.6
				c-1.5,0-2.5,0.6-2.5,1.6C175.6,55.1,190,52.8,190,63.7z"/>
			<path class="st3" d="M213.7,137.3v10.4c0,2.5,2.2,2.8,6,2.5v8c-11.5,1.2-14.8-2.3-14.8-10.5v-10.4h-4.7v-8.4h4.7v-5.6h8.8v5.6h6
				v8.4H213.7z"/>
			<path class="st3" d="M62.7,42.3c-4.2,0-7.3,1.5-9,3.9c-1.6-2.3-4.8-3.9-9-3.9c-9.1,0-13,4.8-13,12.1v18h8.8h0V55.9
				c0-3.4,1.6-5.4,4.4-5.5c2.8,0.1,4.4,2.1,4.4,5.5v16.5h8.8V55.9c0-3.4,1.6-5.4,4.4-5.5c2.8,0.1,4.4,2.1,4.4,5.5v16.5h0h8.8v-18
				C75.7,47.1,71.8,42.3,62.7,42.3z"/>
			<path class="st3" d="M62.7,128c-4.2,0-7.3,1.5-9,3.9c-1.6-2.3-4.8-3.9-9-3.9c-9.1,0-13,4.8-13,12.1v18h8.8h0v-16.5
				c0-3.4,1.6-5.4,4.4-5.5c2.8,0.1,4.4,2.1,4.4,5.5v16.5h8.8v-16.5c0-3.4,1.6-5.4,4.4-5.5c2.8,0.1,4.4,2.1,4.4,5.5v16.5h0h8.8v-18
				C75.7,132.8,71.8,128,62.7,128z"/>
			<path class="st3" d="M80.8,35.3c0-2.9,2.4-5.3,5.3-5.3c2.9,0,5.3,2.4,5.3,5.3c0,2.9-2.4,5.3-5.3,5.3
				C83.2,40.6,80.8,38.2,80.8,35.3z M81.7,43.2h8.8v29.3h-8.8V43.2z"/>
			<path class="st3" d="M111,42.3c-8.9,0-14.1,4.2-14.1,12.1v18h8.8v-16c0-4.1,2.1-6,5.3-6c3.1,0.1,5.3,1.9,5.3,6v16h8.8v-18
				C125.1,46.6,119.9,42.3,111,42.3z"/>
			<path class="st3" d="M161.2,31.4v41h-8.8v-2.8c-1.9,2.2-4.8,3.6-8.7,3.6c-7.7,0-14-6.7-14-15.5c0-8.7,6.3-15.5,14-15.5
				c3.9,0,6.3,0.6,8.7,2.6V31.4H161.2z M152.4,57.8c0-4.4-2.9-7.1-7-7.1c-4,0-7,2.8-7,7.1c0,4.4,2.9,7.1,7,7.1
				C149.4,65,152.4,62.2,152.4,57.8z"/>
			<path class="st1" d="M30.3,100.7c0-8.7,6.9-15.5,15.5-15.5s15.5,6.7,15.5,15.5s-6.9,15.5-15.5,15.5S30.3,109.4,30.3,100.7z
				 M52.5,100.7c0-4.2-2.9-6.9-6.7-6.9c-3.8,0-6.7,2.8-6.7,6.9c0,4.2,2.9,6.9,6.7,6.9C49.6,107.6,52.5,104.8,52.5,100.7z"/>
			<path class="st3" d="M93.5,86l-10.8,29.3h-10L61.9,86h9.7l6.1,18.6L83.8,86H93.5z"/>
			<path class="st3" d="M110.5,108.3c2.4,0,4.5-0.9,5.6-2.2l7,4c-2.9,4-7.2,6-12.8,6c-10,0-16.2-6.7-16.2-15.5s6.3-15.5,15.6-15.5
				c8.6,0,14.9,6.6,14.9,15.5c0,1.2-0.1,2.4-0.4,3.5h-20.8C104.6,107.2,107.2,108.3,110.5,108.3z M115.9,97.6
				c-0.9-3.4-3.6-4.6-6.2-4.6c-3.3,0-5.6,1.6-6.4,4.6H115.9z"/>
			<path class="st3" d="M147.1,85.4v10c-3.6-0.6-8.8,0.9-8.8,6.7v13.2h-8.8V86h8.8v2.2C141.7,84.8,143.5,85.4,147.1,85.4z"/>
			<path class="st3" d="M111.8,128.8v29.3H103v-2.8c-1.9,2.2-4.8,3.6-8.7,3.6c-7.7,0-14-6.7-14-15.5c0-8.7,6.3-15.5,14-15.5
				c3.9,0,6.8,1.3,8.7,3.6v-2.8H111.8z M103,143.5c0-4.4-2.9-7.1-7-7.1c-4,0-7,2.8-7,7.1c0,4.4,2.9,7.1,7,7.1
				C100,150.6,103,147.9,103,143.5z"/>
			<path class="st3" d="M158,158.1l-9.4-12.9v12.9h-8.8v-41h8.8v24.6l8.8-12.8h10.3L157,143.5l11,14.6H158z"/>
			<path class="st3" d="M184.4,151.1c2.4,0,4.5-0.9,5.6-2.2l7,4c-2.9,4-7.2,6-12.8,6c-10,0-16.2-6.7-16.2-15.5
				c0-8.7,6.3-15.5,15.6-15.5c8.6,0,14.9,6.6,14.9,15.5c0,1.2-0.1,2.4-0.4,3.5h-20.8C178.4,150.1,181.1,151.1,184.4,151.1z
				 M189.7,140.4c-0.9-3.4-3.6-4.6-6.2-4.6c-3.3,0-5.6,1.6-6.4,4.6H189.7z"/>
			<path class="st3" d="M135.8,128.3v10c-3.6-0.6-8.8,0.9-8.8,6.7v13.2h-8.8v-29.3h8.8v5.2C128.2,130.1,132.1,128.3,135.8,128.3z"/>
		</g>
	</g>
</g>
</svg>
